<?xml version="1.0" encoding="UTF-8"?>
<svg width="160px" height="26px" viewBox="0 0 160 26" version="1.1" xmlns="http://www.w3.org/2000/svg" xmlns:xlink="http://www.w3.org/1999/xlink">
    <!-- Generator: Sketch 58 (84663) - https://sketch.com -->
    <title>Logo_Full_Color</title>
    <desc>Created with Sketch.</desc>
    <defs>
        <polygon id="path-1" points="0.000128410907 0.0637174922 47.9729024 0.0637174922 47.9729024 25.1685378 0.000128410907 25.1685378"></polygon>
        <polygon id="path-3" points="0 25.3616678 159.96121 25.3616678 159.96121 0.256821815 0 0.256821815"></polygon>
    </defs>
    <g id="Symbols" stroke="none" stroke-width="1" fill="none" fill-rule="evenodd">
        <g id="Header" transform="translate(-60.000000, -40.000000)">
            <g id="Logo_Full_Color">
                <g transform="translate(60.000000, 40.000000)">
                    <g id="Group-3" transform="translate(0.000000, 0.193130)">
                        <mask id="mask-2" fill="white">
                            <use xlink:href="#path-1"></use>
                        </mask>
                        <g id="Clip-2"></g>
                        <path d="M47.9729024,22.9316455 L42.5637214,22.9316455 C45.8297244,20.6631384 47.9729024,16.8855463 47.9729024,12.6161405 C47.9729024,5.6947926 42.3418273,0.0637174922 35.4204794,0.0637174922 C32.5854234,0.0637174922 29.8173979,1.05453605 27.6259374,2.85408651 C26.7288588,3.59065147 25.9465795,4.44946362 25.2970771,5.39687929 C25.7408652,6.21023398 26.1068363,7.06596427 26.3890835,7.95276999 C28.0404478,4.56888576 31.5183288,2.30037868 35.4204794,2.30037868 C41.1083122,2.30037868 45.7359844,6.92805095 45.7359844,12.6161405 C45.7359844,18.3032028 41.1101099,22.9301046 35.4235613,22.9316455 L35.4204794,22.9316455 L35.4204794,22.9319023 C30.6407686,22.9319023 26.4969487,19.5287565 25.5675105,14.8402174 L24.5992923,9.95700743 C24.0481527,7.175884 22.5377836,4.65338014 20.3468367,2.85408651 C18.1556329,1.05453605 15.3876074,0.0637174922 12.5522946,0.0637174922 C12.5451036,0.0637174922 12.5376558,0.063974314 12.5304647,0.063974314 L0.000128410907,0.063974314 L0.000128410907,2.3006355 L5.40905265,2.3006355 C2.14279281,4.56939941 0.000128410907,8.34699148 0.000128410907,12.6161405 C0.000128410907,19.5374884 5.63120352,25.1685635 12.5525514,25.1685635 C15.3876074,25.1685635 18.1556329,24.1777449 20.3468367,22.3784513 C21.2441721,21.6416295 22.0261945,20.7828174 22.6759537,19.8351449 C22.2321656,19.0223038 21.8661945,18.1663167 21.5839473,17.2797678 C19.9323263,20.6636521 16.4544452,22.9319023 12.5525514,22.9319023 C6.86446187,22.9319023 2.23678959,18.30423 2.23678959,12.6161405 C2.23678959,6.93524196 6.85264807,2.3124493 12.5304647,2.3006355 L12.5522946,2.3006355 L12.5522946,2.30037868 L12.5525514,2.30037868 C17.3322622,2.30037868 21.4760822,5.70326772 22.4052635,10.3918068 L23.3734818,15.2752736 C23.9246214,18.056397 25.4349905,20.5789009 27.6259374,22.3784513 C29.8171411,24.1777449 32.5851666,25.1685635 35.4204794,25.1685635 L35.4235613,25.1685635 L47.9729024,25.1685635 L47.9729024,22.9316455 Z" id="Fill-1" fill="#4A42C9" mask="url(#mask-2)"></path>
                    </g>
                    <path d="M67.8321886,13.2994663 L65.2834889,7.28752445 L62.7784489,13.2994663 L67.8321886,13.2994663 Z M68.8340505,15.7174437 L61.7547572,15.7174437 L60.3825582,19.0065607 L57.5726707,19.0065607 L64.0854151,4.10729992 L66.5252224,4.10729992 L72.9945639,19.0065607 L70.2280793,19.0065607 L68.8340505,15.7174437 Z" id="Fill-4" fill="#ffffff"></path>
                    <path d="M79.442358,16.5014436 C79.4544287,16.5014436 79.4667561,16.5014436 79.4788267,16.5014436 C81.0184735,16.4891162 82.2519887,15.2199028 82.2519887,13.680256 L82.2519887,13.2891164 C82.2519887,11.7502401 81.0195008,10.4817971 79.4806245,10.4679288 C79.4680402,10.4676719 79.4551991,10.4676719 79.442358,10.4676719 C78.5563228,10.4676719 77.8305443,10.7655852 77.2642522,11.3608982 C76.6974465,11.956468 76.4144288,12.6971421 76.4144288,13.5826637 C76.4144288,14.3379767 76.7048943,15.0131612 77.2858252,15.6084742 C77.8811382,16.204044 78.5999825,16.5014436 79.442358,16.5014436 L79.442358,16.5014436 Z M84.7570287,8.70356288 L84.7570287,19.0064836 C84.7570287,20.5748944 84.2703513,21.8235621 83.2977671,22.7530002 C82.3246693,23.6819248 81.0685538,24.1470291 79.5294206,24.1470291 C78.0624544,24.1470291 76.8428076,23.7474143 75.8699666,22.9489553 C74.8678479,22.1356006 74.3159378,21.1119089 74.21475,19.8776232 L76.762936,19.8776232 C76.8499986,20.487575 77.1404641,20.9704 77.6343325,21.3263551 C78.127944,21.6817965 78.7594688,21.8600308 79.5294206,21.8600308 C80.3571573,21.8600308 81.017703,21.6057772 81.5115714,21.0975268 C82.0051829,20.5892765 82.2519887,19.8920052 82.2519887,19.0064836 L82.2519887,17.7213473 C81.3518282,18.3603199 80.2919246,18.6795494 79.072021,18.6795494 C77.6487145,18.6795494 76.4288109,18.1715559 75.4125669,17.1547983 C74.4104482,16.1239156 73.9096457,14.9332896 73.9096457,13.5826637 C73.9096457,12.0579126 74.4030004,10.8020539 75.3907371,9.81431723 C76.3928558,8.81245533 77.6196936,8.31139597 79.072021,8.31139597 C80.2919246,8.31139597 81.3518282,8.63088231 82.2519887,9.26985499 L82.2519887,8.70356288 L84.7570287,8.70356288 Z" id="Fill-6" fill="#ffffff"></path>
                    <path d="M92.4464536,10.5984456 C91.6913974,10.5984456 91.0665499,10.8128918 90.5731952,11.2410138 C90.0793269,11.6693926 89.7595837,12.246728 89.6147362,12.9727633 L95.060386,12.9727633 C94.9584277,12.2320892 94.6823443,11.6516719 94.2326493,11.2302273 C93.7821838,10.8090395 93.1871277,10.5984456 92.4464536,10.5984456 M97.6088289,13.6916075 C97.6088289,14.2001147 97.586999,14.584577 97.5435961,14.8460216 L97.5217663,14.8460216 L89.6365661,14.8460216 C89.8106913,15.5576748 90.1517506,16.1131804 90.6602578,16.5122815 C91.1682514,16.9118963 91.8290539,17.1114468 92.6424086,17.1114468 C93.6586525,17.1114468 94.3559237,16.7922173 94.7334518,16.1529878 L97.4128738,16.1529878 C97.1221515,17.0970648 96.5378819,17.8485254 95.6592945,18.4073697 C94.7804502,18.9664708 93.7534198,19.2461497 92.5771759,19.2461497 C90.9507233,19.2461497 89.6288614,18.7378994 88.6126175,17.7211418 C87.6107556,16.690259 87.1099531,15.4053795 87.1099531,13.8659895 C87.1099531,12.3268564 87.6107556,11.04172 88.6126175,10.0103236 C89.6437571,8.97944088 90.9651053,8.46374267 92.5771759,8.46374267 C94.0289896,8.46374267 95.2198723,8.95042001 96.1493105,9.92326105 C97.1077695,10.8963589 97.59419,12.1524744 97.6088289,13.6916075" id="Fill-8" fill="#ffffff"></path>
                    <path d="M105.559185,8.37670576 C106.909811,8.37670576 107.998992,8.8269144 108.826729,9.72733168 C109.654209,10.627749 110.068205,11.8258227 110.068205,13.3212962 L110.068205,19.0065607 L107.563422,19.0065607 L107.563422,13.4738483 C107.563422,12.573431 107.337933,11.880269 106.887981,11.3935916 C106.437772,10.9071711 105.820886,10.6639608 105.036552,10.6639608 C104.996745,10.6639608 104.956681,10.6647313 104.91713,10.6665291 C103.487917,10.7281663 102.37896,11.9442176 102.37896,13.3747151 L102.37896,19.0065607 L99.8523472,19.0065607 L99.8523472,8.70338311 L102.37896,8.70338311 L102.37896,9.55294967 C103.308142,8.76861585 104.368302,8.37670576 105.559185,8.37670576" id="Fill-10" fill="#ffffff"></path>
                    <path d="M117.691755,16.9806218 C118.330471,16.9806218 118.874934,16.8139444 119.325399,16.4798192 C119.775094,16.1459509 120.058368,15.7029333 120.174966,15.1510232 L122.745238,15.1510232 C122.585238,16.3565448 122.033585,17.3437678 121.089508,18.1134628 C120.16007,18.8687758 119.027486,19.246047 117.691755,19.246047 C116.152365,19.246047 114.852333,18.7306056 113.79243,17.699466 C112.747165,16.6832221 112.224276,15.4052768 112.224276,13.8658868 C112.224276,12.3267537 112.747165,11.0416173 113.79243,10.0104777 C114.852333,8.97959497 116.152365,8.46389677 117.691755,8.46389677 C118.998722,8.46389677 120.123858,8.84861584 121.067935,9.61831082 C122.040776,10.3882626 122.599877,11.3682947 122.745238,12.5589206 L120.174966,12.5589206 C120.058368,12.0072673 119.775094,11.5678452 119.325399,11.2411679 C118.874934,10.9142337 118.330471,10.7511518 117.691755,10.7511518 C116.834741,10.7511518 116.126683,11.0488083 115.567839,11.6441213 C115.008738,12.2396911 114.729316,12.9803652 114.729316,13.8658868 C114.729316,14.7516653 115.008738,15.4923394 115.567839,16.0876523 C116.126683,16.6832221 116.834741,16.9806218 117.691755,16.9806218" id="Fill-12" fill="#ffffff"></path>
                    <polygon id="Fill-14" fill="#ffffff" points="135.792916 8.68168167 129.06213 24.1469777 126.404538 24.1469777 128.495838 19.3549395 123.376866 8.68168167 126.078118 8.68168167 129.780975 16.3924998 133.135324 8.68168167"></polygon>
                    <mask id="mask-4" fill="white">
                        <use xlink:href="#path-3"></use>
                    </mask>
                    <g id="Clip-17"></g>
                    <polygon id="Fill-16" fill="#8D8F91" mask="url(#mask-4)" points="138.079735 19.0063552 140.693667 19.0063552 140.693667 4.19441388 138.079735 4.19441388"></polygon>
                    <path d="M146.132255,11.5837168 C146.132255,8.92227234 148.289558,6.76445546 150.951259,6.76445546 C153.61296,6.76445546 155.770264,8.92227234 155.770264,11.5837168 C155.770264,14.2451613 153.61296,16.4029782 150.951259,16.4029782 C148.289558,16.4029782 146.132255,14.2451613 146.132255,11.5837168 L146.132255,11.5837168 Z M159.961339,18.5669588 L157.047952,15.7455143 C157.858225,14.5605385 158.332575,13.1274727 158.332575,11.5837168 C158.332575,7.50718414 155.027792,4.20240103 150.951259,4.20240103 C146.874726,4.20240103 143.569943,7.50718414 143.569943,11.5837168 C143.569943,15.6602495 146.874726,18.9650326 150.951259,18.9650326 C152.573602,18.9650326 154.073185,18.4413729 155.291291,17.5543104 L158.207246,20.3780662 L159.961339,18.5669588 Z" id="Fill-18" fill="#8D8F91" mask="url(#mask-4)"></path>
                </g>
            </g>
        </g>
    </g>
</svg>